{
    "asset" : {
        "generator" : "Khronos glTF Blender I/O v0.9.36",
        "version" : "2.0"
    },
    "scene" : 0,
    "scenes" : [
        {
            "name" : "Scene",
            "nodes" : [
                0
            ]
        }
    ],
    "nodes" : [
        {
            "mesh" : 0,
            "name" : "Cylinder"
        }
    ],
    "meshes" : [
        {
            "name" : "Cylinder",
            "primitives" : [
                {
                    "attributes" : {
                        "POSITION" : 0,
                        "NORMAL" : 1,
                        "TEXCOORD_0" : 2
                    },
                    "indices" : 3
                }
            ]
        }
    ],
    "accessors" : [
        {
            "bufferView" : 0,
            "componentType" : 5126,
            "count" : 1035,
            "max" : [
                3.799999475479126,
                0.9999997019767761,
                1.9999998807907104
            ],
            "min" : [
                -0.9999998807907104,
                -1.0000004768371582,
                -1.9999998807907104
            ],
            "type" : "VEC3"
        },
        {
            "bufferView" : 1,
            "componentType" : 5126,
            "count" : 1035,
            "type" : "VEC3"
        },
        {
            "bufferView" : 2,
            "componentType" : 5126,
            "count" : 1035,
            "type" : "VEC2"
        },
        {
            "bufferView" : 3,
            "componentType" : 5123,
            "count" : 5310,
            "type" : "SCALAR"
        }
    ],
    "bufferViews" : [
        {
            "buffer" : 0,
            "byteLength" : 12420,
            "byteOffset" : 0
        },
        {
            "buffer" : 0,
            "byteLength" : 12420,
            "byteOffset" : 12420
        },
        {
            "buffer" : 0,
            "byteLength" : 8280,
            "byteOffset" : 24840
        },
        {
            "buffer" : 0,
            "byteLength" : 10620,
            "byteOffset" : 33120
        }
    ],
    "buffers" : [
        {
            "byteLength" : 43740,
            "uri" : "data:application/octet-stream;base64,"
        }
    ]
}
